<svg width="25" height="25" viewBox="0 0 25 25" fill="none" xmlns="http://www.w3.org/2000/svg">
<path d="M21.271 10.6042L13.2397 2.39586C13.1429 2.29823 13.0277 2.22073 12.9007 2.16785C12.7738 2.11497 12.6376 2.08774 12.5001 2.08774C12.3626 2.08774 12.2265 2.11497 12.0995 2.16785C11.9726 2.22073 11.8574 2.29823 11.7605 2.39586L3.72929 10.6146C3.53495 10.8105 3.38147 11.0431 3.27775 11.2988C3.17404 11.5545 3.12216 11.8283 3.12512 12.1042V20.8334C3.12431 21.3666 3.32801 21.8799 3.69426 22.2674C4.06051 22.655 4.56143 22.8874 5.09387 22.9167H19.9064C20.4388 22.8874 20.9397 22.655 21.306 22.2674C21.6722 21.8799 21.8759 21.3666 21.8751 20.8334V12.1042C21.8759 11.5448 21.6593 11.0069 21.271 10.6042ZM10.4168 20.8334V14.5834H14.5835V20.8334H10.4168ZM19.7918 20.8334H16.6668V13.5417C16.6668 13.2654 16.557 13.0005 16.3617 12.8051C16.1663 12.6098 15.9014 12.5 15.6251 12.5H9.37512C9.09885 12.5 8.8339 12.6098 8.63855 12.8051C8.4432 13.0005 8.33345 13.2654 8.33345 13.5417V20.8334H5.20845V12.0625L12.5001 4.61461L19.7918 12.1042V20.8334Z" fill="#231F20"/>
</svg>
