<svg width="25" height="25" viewBox="0 0 25 25" fill="none" xmlns="http://www.w3.org/2000/svg">
<path d="M18.4479 6.55208C18.3511 6.45445 18.2359 6.37695 18.1089 6.32407C17.982 6.27119 17.8458 6.24396 17.7083 6.24396C17.5708 6.24396 17.4347 6.27119 17.3077 6.32407C17.1808 6.37695 17.0656 6.45445 16.9687 6.55208L8.33333 15.1979V9.375C8.33333 9.09873 8.22359 8.83378 8.02824 8.63843C7.83289 8.44308 7.56793 8.33333 7.29167 8.33333C7.0154 8.33333 6.75045 8.44308 6.5551 8.63843C6.35975 8.83378 6.25 9.09873 6.25 9.375V17.7083C6.25 17.9846 6.35975 18.2495 6.5551 18.4449C6.75045 18.6402 7.0154 18.75 7.29167 18.75H15.625C15.9013 18.75 16.1662 18.6402 16.3616 18.4449C16.5569 18.2495 16.6667 17.9846 16.6667 17.7083C16.6667 17.4321 16.5569 17.1671 16.3616 16.9718C16.1662 16.7764 15.9013 16.6667 15.625 16.6667H9.80208L18.4479 8.03125C18.5455 7.93441 18.623 7.8192 18.6759 7.69226C18.7288 7.56533 18.756 7.42918 18.756 7.29166C18.756 7.15415 18.7288 7.018 18.6759 6.89106C18.623 6.76413 18.5455 6.64892 18.4479 6.55208Z" fill="#231F20"/>
</svg>
