<svg width="20" height="18" viewBox="0 0 20 18" fill="none" xmlns="http://www.w3.org/2000/svg">
<path d="M11.7 0.785938C11.5734 0.890875 11.4688 1.01975 11.3921 1.16519C11.3154 1.31062 11.2682 1.46975 11.2531 1.63347C11.238 1.79719 11.2553 1.96228 11.3041 2.11929C11.3529 2.27629 11.4322 2.42213 11.5375 2.54844L16.075 7.99844L1.25 7.99844C0.918479 7.99844 0.600537 8.13013 0.366117 8.36456C0.131696 8.59898 0 8.91692 0 9.24844C0 9.57996 0.131696 9.8979 0.366117 10.1323C0.600537 10.3667 0.918479 10.4984 1.25 10.4984H16.075L11.5375 15.9484C11.4324 16.0748 11.3533 16.2207 11.3046 16.3777C11.2559 16.5346 11.2386 16.6997 11.2537 16.8633C11.2688 17.027 11.316 17.1861 11.3926 17.3315C11.4691 17.477 11.5736 17.6059 11.7 17.7109C11.8264 17.816 11.9722 17.8951 12.1292 17.9438C12.2862 17.9925 12.4512 18.0098 12.6149 17.9947C12.7786 17.9796 12.9377 17.9324 13.0831 17.8559C13.2285 17.7793 13.3574 17.6748 13.4625 17.5484L19.7125 10.0484L19.825 9.86094L19.9125 9.69844C20.0242 9.40884 20.0242 9.08803 19.9125 8.79844L19.825 8.63594L19.7125 8.44844L13.4625 0.948439C13.3576 0.821865 13.2287 0.717237 13.0833 0.640549C12.9378 0.563858 12.7787 0.516611 12.615 0.501516C12.4512 0.486422 12.2862 0.503775 12.1291 0.552582C11.9721 0.601387 11.8263 0.680685 11.7 0.785938Z" fill="#231F20"/>
</svg>
