<svg width="25" height="25" viewBox="0 0 25 25" fill="none" xmlns="http://www.w3.org/2000/svg">
<path d="M19.1728 6.92706C19.1728 6.6508 19.063 6.38584 18.8677 6.19049C18.6723 5.99514 18.4074 5.8854 18.1311 5.8854L9.79779 5.83331C9.52152 5.83331 9.25657 5.94306 9.06122 6.13841C8.86587 6.33376 8.75612 6.59871 8.75612 6.87498C8.75612 7.15125 8.86587 7.4162 9.06122 7.61155C9.25657 7.8069 9.52152 7.91665 9.79779 7.91665H15.5895L6.97487 16.5521C6.87724 16.6489 6.79974 16.7641 6.74686 16.891C6.69398 17.018 6.66675 17.1541 6.66675 17.2916C6.66675 17.4292 6.69398 17.5653 6.74686 17.6922C6.79974 17.8192 6.87724 17.9344 6.97487 18.0312C7.07171 18.1289 7.18692 18.2064 7.31385 18.2592C7.44079 18.3121 7.57694 18.3394 7.71445 18.3394C7.85197 18.3394 7.98812 18.3121 8.11506 18.2592C8.24199 18.2064 8.3572 18.1289 8.45404 18.0312L17.0895 9.39581V15.2083C17.0895 15.4846 17.1992 15.7495 17.3945 15.9449C17.5899 16.1402 17.8549 16.25 18.1311 16.25C18.4074 16.25 18.6723 16.1402 18.8677 15.9449C19.063 15.7495 19.1728 15.4846 19.1728 15.2083V6.92706Z" fill="#231F20"/>
</svg>
