<svg width="25" height="25" viewBox="0 0 25 25" fill="none" xmlns="http://www.w3.org/2000/svg">
<path d="M18.75 3.125H6.25C5.4212 3.125 4.62634 3.45424 4.04029 4.04029C3.45424 4.62634 3.125 5.4212 3.125 6.25V18.75C3.125 19.5788 3.45424 20.3737 4.04029 20.9597C4.62634 21.5458 5.4212 21.875 6.25 21.875H18.75C19.5788 21.875 20.3737 21.5458 20.9597 20.9597C21.5458 20.3737 21.875 19.5788 21.875 18.75V6.25C21.875 5.4212 21.5458 4.62634 20.9597 4.04029C20.3737 3.45424 19.5788 3.125 18.75 3.125ZM19.7917 18.75C19.7917 19.0263 19.6819 19.2912 19.4866 19.4866C19.2912 19.6819 19.0263 19.7917 18.75 19.7917H6.25C5.97373 19.7917 5.70878 19.6819 5.51343 19.4866C5.31808 19.2912 5.20833 19.0263 5.20833 18.75V6.25C5.20833 5.97373 5.31808 5.70878 5.51343 5.51343C5.70878 5.31808 5.97373 5.20833 6.25 5.20833H18.75C19.0263 5.20833 19.2912 5.31808 19.4866 5.51343C19.6819 5.70878 19.7917 5.97373 19.7917 6.25V18.75Z" fill="#231F20"/>
<path d="M15.6249 11.4583H9.37492C9.09865 11.4583 8.8337 11.5681 8.63835 11.7634C8.443 11.9588 8.33325 12.2237 8.33325 12.5C8.33325 12.7762 8.443 13.0412 8.63835 13.2365C8.8337 13.4319 9.09865 13.5416 9.37492 13.5416H15.6249C15.9012 13.5416 16.1661 13.4319 16.3615 13.2365C16.5568 13.0412 16.6666 12.7762 16.6666 12.5C16.6666 12.2237 16.5568 11.9588 16.3615 11.7634C16.1661 11.5681 15.9012 11.4583 15.6249 11.4583Z" fill="#231F20"/>
</svg>
