<svg width="25" height="25" viewBox="0 0 25 25" fill="none" xmlns="http://www.w3.org/2000/svg">
<path d="M12.5001 14.5834C13.6507 14.5834 14.5834 13.6506 14.5834 12.5001C14.5834 11.3495 13.6507 10.4167 12.5001 10.4167C11.3495 10.4167 10.4167 11.3495 10.4167 12.5001C10.4167 13.6506 11.3495 14.5834 12.5001 14.5834Z" fill="#231F20"/>
<path d="M12.5001 7.2917C13.6507 7.2917 14.5834 6.35896 14.5834 5.20836C14.5834 4.05777 13.6507 3.12503 12.5001 3.12503C11.3495 3.12503 10.4167 4.05777 10.4167 5.20836C10.4167 6.35896 11.3495 7.2917 12.5001 7.2917Z" fill="#231F20"/>
<path d="M12.5001 21.875C13.6507 21.875 14.5834 20.9423 14.5834 19.7917C14.5834 18.6411 13.6507 17.7084 12.5001 17.7084C11.3495 17.7084 10.4167 18.6411 10.4167 19.7917C10.4167 20.9423 11.3495 21.875 12.5001 21.875Z" fill="#231F20"/>
</svg>
